<?xml version="1.0" encoding="ISO-8859-1" standalone="no"?>
<!DOCTYPE svg PUBLIC "-//W3C//DTD SVG 20000303 Stylable//EN"
"http://www.w3.org/TR/2000/03/WD-SVG-20000303/DTD/svg-20000303-stylable.dtd">
<svg width="8in" height="8in" viewBox="0 0 1 1" preserveAspectRatio="none">
<title>SVG drawing</title>
<desc>This was produced by version 4.1 of GNU libplot, a free library for exporting 2-D vector graphics.</desc>
<rect x="0" y="0" width="1" height="1" style="stroke:none;fill:white;"/>
<g transform="translate(0.21563,0.21406) scale(1,-1) scale(0.125) " xml:space="preserve" style="stroke:black;stroke-linecap:butt;stroke-linejoin:miter;stroke-miterlimit:10.433;stroke-dasharray:none;stroke-dashoffset:0;stroke-opacity:1;fill:none;fill-rule:even-odd;fill-opacity:1;font-style:normal;font-variant:normal;font-weight:normal;font-stretch:normal;font-size-adjust:none;letter-spacing:normal;word-spacing:normal;text-anchor:start;">
<circle cx="0.15" cy="0.19" r="0.06" style="stroke-width:0.0094118;"/>
<line x1="0.15" y1="0.13" x2="0.15" y2="0.01" style="stroke-width:0.0094118;"/>
<line x1="0" y1="0.11" x2="0.3" y2="0.11" style="stroke-width:0.0094118;"/>
<line x1="0.15" y1="0.01" x2="0.07" y2="-0.14" style="stroke-width:0.0094118;"/>
<line x1="0.15" y1="0.01" x2="0.23" y2="-0.14" style="stroke-width:0.0094118;"/>
<text transform="translate(0.15,-0.25) scale(1,-1) " style="font-family:'Helvetica',sans-serif;font-size:0.13889;text-anchor:middle;baseline-identifier:centerline;stroke:none;fill:black;">User</text>
<rect x="2.05" y="-0.15" width="0.75" height="0.3" style="stroke-width:0.0094118;"/>
<text transform="translate(2.425) scale(1,-1) " style="font-family:'Helvetica',sans-serif;font-size:0.13889;text-anchor:middle;baseline-identifier:centerline;stroke:none;fill:black;">a:Ant</text>
<line x1="2.15" y1="-0.07" x2="2.7" y2="-0.07" style="stroke-width:0.0094118;"/>
<line x1="0.15" y1="-0.3" x2="0.15" y2="0" style="stroke-width:0.0094118;stroke-dasharray:0.05 0.05;"/>
<line x1="0.05" y1="0" x2="0.15" y2="0" style="stroke-width:0.0094118;"/>
<line x1="0.15" y1="0" x2="0.15" y2="-0.25" style="stroke-width:0.0094118;stroke-dasharray:0.05 0.05;"/>
<line x1="0.05" y1="-0.25" x2="0.15" y2="-0.25" style="stroke-width:0.0094118;"/>
<line x1="0.21" y1="-0.5" x2="2.365" y2="-0.5" style="stroke-width:0.0094118;"/>
<polygon points="2.265,-0.475 2.365,-0.5 2.265,-0.525 " style="stroke-width:0.0094118;fill:black;"/>
<text transform="translate(1.2875,-0.41667) scale(1,-1) " style="font-family:'Helvetica',sans-serif;font-size:0.13889;text-anchor:middle;baseline-identifier:centerline;stroke:none;fill:black;">&quot;run QueryJ&quot;</text>
<text transform="translate(1.2875,-0.58333) scale(1,-1) " style="font-family:'Helvetica',sans-serif;font-size:0.13889;text-anchor:middle;baseline-identifier:centerline;stroke:none;fill:black;"> </text>
<line x1="2.425" y1="-0.15" x2="2.425" y2="-0.5" style="stroke-width:0.0094118;stroke-dasharray:0.05 0.05;"/>
<line x1="2.375" y1="-0.5" x2="2.475" y2="-0.5" style="stroke-width:0.0094118;"/>
<polyline points="2.485,-1.25 2.985,-1.25 2.985,-1.5 2.485,-1.5 " style="stroke-width:0.0094118;"/>
<polygon points="2.585,-1.525 2.485,-1.5 2.585,-1.475 " style="stroke-width:0.0094118;fill:black;"/>
<text transform="translate(2.485,-1.125) scale(1,-1) " style="font-family:'Helvetica',sans-serif;font-size:0.13889;baseline-identifier:centerline;stroke:none;fill:black;">instantiateQueryJTask()</text>
<text transform="translate(2.485,-1.2917) scale(1,-1) " style="font-family:'Helvetica',sans-serif;font-size:0.13889;text-anchor:middle;baseline-identifier:centerline;stroke:none;fill:black;"> </text>
<text transform="translate(2.485,-1.4583) scale(1,-1) " style="font-family:'Helvetica',sans-serif;font-size:0.13889;text-anchor:middle;baseline-identifier:centerline;stroke:none;fill:black;"> </text>
<text transform="translate(2.485,-1.625) scale(1,-1) " style="font-family:'Helvetica',sans-serif;font-size:0.13889;text-anchor:middle;baseline-identifier:centerline;stroke:none;fill:black;"> </text>
<line x1="2.485" y1="-1.75" x2="3.2925" y2="-1.75" style="stroke-width:0.0094118;"/>
<polygon points="3.1925,-1.725 3.2925,-1.75 3.1925,-1.775 " style="stroke-width:0.0094118;fill:black;"/>
<text transform="translate(2.8887,-1.6667) scale(1,-1) " style="font-family:'Helvetica',sans-serif;font-size:0.13889;text-anchor:middle;baseline-identifier:centerline;stroke:none;fill:black;">«create»</text>
<text transform="translate(2.8887,-1.8333) scale(1,-1) " style="font-family:'Helvetica',sans-serif;font-size:0.13889;text-anchor:middle;baseline-identifier:centerline;stroke:none;fill:black;"> </text>
<rect x="3.2925" y="-1.9" width="0.75" height="0.3" style="stroke-width:0.0094118;"/>
<text transform="translate(3.6675,-1.75) scale(1,-1) " style="font-family:'Helvetica',sans-serif;font-size:0.13889;text-anchor:middle;baseline-identifier:centerline;stroke:none;fill:black;">q:QueryJ</text>
<line x1="3.3925" y1="-1.82" x2="3.9425" y2="-1.82" style="stroke-width:0.0094118;"/>
<line x1="2.375" y1="-0.5" x2="2.375" y2="-2.025" style="stroke-width:0.0094118;"/>
<line x1="2.475" y1="-0.5" x2="2.475" y2="-2.025" style="stroke-width:0.0094118;"/>
<line x1="2.425" y1="-2.025" x2="2.525" y2="-2.025" style="stroke-width:0.0094118;"/>
<line x1="2.535" y1="-2.275" x2="3.615" y2="-2.275" style="stroke-width:0.0094118;"/>
<polygon points="3.515,-2.25 3.615,-2.275 3.515,-2.3 " style="stroke-width:0.0094118;fill:black;"/>
<text transform="translate(3.075,-2.1917) scale(1,-1) " style="font-family:'Helvetica',sans-serif;font-size:0.13889;text-anchor:middle;baseline-identifier:centerline;stroke:none;fill:black;">q.setProperty(X)</text>
<text transform="translate(3.075,-2.3583) scale(1,-1) " style="font-family:'Helvetica',sans-serif;font-size:0.13889;text-anchor:middle;baseline-identifier:centerline;stroke:none;fill:black;"> </text>
<line x1="3.675" y1="-1.9" x2="3.675" y2="-2.275" style="stroke-width:0.0094118;stroke-dasharray:0.05 0.05;"/>
<line x1="3.625" y1="-2.275" x2="3.725" y2="-2.275" style="stroke-width:0.0094118;"/>
<line x1="2.375" y1="-2.025" x2="2.375" y2="-2.525" style="stroke-width:0.0094118;"/>
<line x1="2.425" y1="-2.025" x2="2.425" y2="-2.525" style="stroke-width:0.0094118;"/>
<line x1="2.525" y1="-2.025" x2="2.525" y2="-2.525" style="stroke-width:0.0094118;"/>
<line x1="2.425" y1="-2.525" x2="2.525" y2="-2.525" style="stroke-width:0.0094118;"/>
<line x1="3.625" y1="-2.275" x2="3.625" y2="-2.525" style="stroke-width:0.0094118;"/>
<line x1="3.725" y1="-2.275" x2="3.725" y2="-2.525" style="stroke-width:0.0094118;"/>
<line x1="3.625" y1="-2.525" x2="3.725" y2="-2.525" style="stroke-width:0.0094118;"/>
<line x1="2.375" y1="-2.525" x2="2.375" y2="-2.775" style="stroke-width:0.0094118;"/>
<line x1="2.475" y1="-2.525" x2="2.475" y2="-2.775" style="stroke-width:0.0094118;"/>
<text transform="translate(2.425,-2.925) scale(1,-1) " style="font-family:'Helvetica',sans-serif;font-size:0.13889;text-anchor:middle;baseline-identifier:centerline;stroke:none;fill:black;">QueryJ flow</text>
<polyline points="2.8,-2.775 2.8,-2.925 2.65,-3.075 2.05,-3.075 " style="stroke-width:0.0094118;"/>
<line x1="2.485" y1="-3.325" x2="3.615" y2="-3.325" style="stroke-width:0.0094118;"/>
<polygon points="3.515,-3.3 3.615,-3.325 3.515,-3.35 " style="stroke-width:0.0094118;fill:black;"/>
<text transform="translate(3.05,-3.2417) scale(1,-1) " style="font-family:'Helvetica',sans-serif;font-size:0.13889;text-anchor:middle;baseline-identifier:centerline;stroke:none;fill:black;">execute()</text>
<text transform="translate(3.05,-3.4083) scale(1,-1) " style="font-family:'Helvetica',sans-serif;font-size:0.13889;text-anchor:middle;baseline-identifier:centerline;stroke:none;fill:black;"> </text>
<line x1="3.675" y1="-2.525" x2="3.675" y2="-3.325" style="stroke-width:0.0094118;stroke-dasharray:0.05 0.05;"/>
<line x1="3.625" y1="-3.325" x2="3.725" y2="-3.325" style="stroke-width:0.0094118;"/>
<line x1="3.615" y1="-3.825" x2="2.485" y2="-3.825" style="stroke-width:0.0094118;stroke-dasharray:0.05 0.05;"/>
<polygon points="2.585,-3.85 2.485,-3.825 2.585,-3.8 " style="stroke-width:0.0094118;fill:black;"/>
<text transform="translate(3.05,-3.9083) scale(1,-1) " style="font-family:'Helvetica',sans-serif;font-size:0.13889;text-anchor:middle;baseline-identifier:centerline;stroke:none;fill:black;"> </text>
<line x1="3.625" y1="-3.325" x2="3.625" y2="-3.825" style="stroke-width:0.0094118;"/>
<line x1="3.725" y1="-3.325" x2="3.725" y2="-3.825" style="stroke-width:0.0094118;"/>
<line x1="3.625" y1="-3.825" x2="3.725" y2="-3.825" style="stroke-width:0.0094118;"/>
<rect x="2.05" y="-4.075" width="2" height="1.3" style="stroke-width:0.0094118;"/>
<line x1="3.675" y1="-3.825" x2="3.675" y2="-4.075" style="stroke-width:0.0094118;stroke-dasharray:0.05 0.05;"/>
<line x1="3.575" y1="-4.075" x2="3.675" y2="-4.075" style="stroke-width:0.0094118;"/>
<line x1="2.485" y1="-4.575" x2="3.615" y2="-4.575" style="stroke-width:0.0094118;"/>
<polygon points="3.515,-4.55 3.615,-4.575 3.515,-4.6 " style="stroke-width:0.0094118;fill:black;"/>
<text transform="translate(3.05,-4.4917) scale(1,-1) " style="font-family:'Helvetica',sans-serif;font-size:0.13889;text-anchor:middle;baseline-identifier:centerline;stroke:none;fill:black;">«destroy»</text>
<text transform="translate(3.05,-4.6583) scale(1,-1) " style="font-family:'Helvetica',sans-serif;font-size:0.13889;text-anchor:middle;baseline-identifier:centerline;stroke:none;fill:black;"> </text>
<line x1="3.675" y1="-4.075" x2="3.675" y2="-4.575" style="stroke-width:0.0094118;stroke-dasharray:0.05 0.05;"/>
<line x1="3.625" y1="-4.575" x2="3.625" y2="-4.575" style="stroke-width:0.0094118;"/>
<line x1="3.575" y1="-4.675" x2="3.775" y2="-4.475" style="stroke-width:0.0094118;"/>
<line x1="3.575" y1="-4.475" x2="3.775" y2="-4.675" style="stroke-width:0.0094118;"/>
<line x1="2.375" y1="-3.075" x2="2.375" y2="-4.575" style="stroke-width:0.0094118;"/>
<line x1="2.475" y1="-3.075" x2="2.475" y2="-4.575" style="stroke-width:0.0094118;"/>
<line x1="2.375" y1="-4.575" x2="2.475" y2="-4.575" style="stroke-width:0.0094118;"/>
<line x1="2.425" y1="-4.575" x2="2.425" y2="-4.825" style="stroke-width:0.0094118;stroke-dasharray:0.05 0.05;"/>
<line x1="0.15" y1="-0.25" x2="0.15" y2="-4.825" style="stroke-width:0.0094118;stroke-dasharray:0.05 0.05;"/>
</g>
</svg>
